/* XPM */
static char * brick_xpm[] = {
"64 64 16 1",
" 	c #555555",
".	c #444444",
"+	c #777777",
"@	c #888888",
"#	c #AAAAAA",
"$	c #999999",
"%	c #BBBBBB",
"&	c #CCCCCC",
"*	c #DDDDDD",
"=	c #111111",
"-	c #333333",
";	c #666666",
">	c #000000",
",	c #222222",
"'	c #EEEEEE",
")	c #FFFFFF",
"    ...+@@##$%%&&*&&*#$=-. ;;;+++;;; ..  ;+++;.++;;+@@+; ->.;+- ",
";@++; ;$&%%&%%&&&&&%&#@=-.;@+++@+;;;;;;;;++$@@;%%#$@+$+;;.,;+@+;",
"@@@@@+$%&*&&&&&%%%##%$+,-.;@;;++++++++++@$$#@++&%%%#$@++@;. ;@@@",
"$$@@@+%%**&&&&%%%#@$$$+,. +@@+@@$@@$$#$@@$$$+;;%#$$@@@@@@;. ;+@$",
"+@+++@#%&&&%%###$@@@$$$- ;+$@@@@@$####$@#@@+;;;%#$$$$$@++; ;+@@@",
"++++; #&&%%#$@+;;+@$$$%.;++++@@@@@@@@@@@@@+;; ;%###$@+++++  ;+++",
"+@++;.&*%$$@@@+++@++@$# ;;;+;++++++++++++;;; ..$$#$$+;;  ;. ;+++",
"++;..,+%#$@++++++@+++@+ ;;  +@@++++; ; ;; .;.-=;+++++;.=- -. ;;+",
"##$$@@@+++;  .-=,-  +;  .-=>&')')'***'''))))*'*******&$,+%%###%#",
"%#$%%#@@@@+;;  -.;+$$@+@;-,,'**)''&&&%&*''%&%%&&&%%%#$@.@%%$$$#%",
"%$###$@@@@@++++. +@#%$$$;.--**&**&%%#%%&*&#$#%###%%#$@@ @%$$$#%%",
"$$#####$$@@@@+;. ;@##%$@+;  &%#&&%%###%&&&#$$@@@$##$@@+ @$@$$%%#",
"#$####$$@@@@@+;.  +@$#$@++;;&&#%%##$$$#####@@@@@@@@@@++.+@@$$#%%",
"#@$##$$@@+@@+++.  ;+@@@+;   &&%#$@@@@$$$$$$$@@@@@@@@++;.;@@$@$#%",
"$$$#$$@@++@$@++-. ;++++;  ..%&$$$$$#$$$$@@@@@@$$@++++;.,.+$$++@$",
";+@@$@@$@++++; ,-.  +    .-,##$$$@@+++@++++++++@++;;;.-,.;++@@+ ",
"@,,.;;; ;; + *'''&**''*%#@@++;; .=-. .     .---$%%%&&'')')**'*&%",
"*..;;; ;++;+;&''*******%$#$@$@@++,-. ;;  ;   ..#%%%&&')'*'&*****",
"% ;++;;++;;++*''***&#&'&##$$$$#@+.. ++;;;;; ;  #%&**)))*&'*'*&&&",
"$;+@@++++;;+@&*'*&&%%&%###$$###$@;  +++@++;;+; $%&**)'**&*''&###",
"@ @$$@++   ;;%&**%##%%$$$$##%##@+ .+@@@@@++@+; $#%&&%%#%&%&&%@$@",
"@.;++; ..; ..####$@$##$$$$####$++-.;;@@@@@@@+ .@$##$$$$#$$$$$$$@",
"$- ;;   ;+ -,@+++@++@$#%#$##@@@; ,-.  ;;++;; .-+@$$$$$$$$$$$$$$$",
"+,.;++ ; ..-,.-.  ;+@$#$$@@+++ -,>,-..      .-=. ;+++@@@$$$$$$@@",
"@+$$%&**&####$+ &&**''))))')'*$-@$#**&&&%#%&%$+;; .=,-. ;++;->-+",
"#%*'')')&%&##$+;)*%*')))'**)''#.$$@#&&###%%&&#$+;;;,-. ;;;;;;,+#",
"*)')*&&&&&&%#$+;)'*'))))***&&&#+##$#####%%%&%&$+;++..;+$@++@+ #%",
")'&&%%&&&&&%$$@+)''))''&&&%%##$+@#%%#%%%&%%#&&#@++@  ;$$$+@$++&&",
"'%#%##%%%%#$@+@+)*')'%%%%%&%$@$+$%&#%%&&*%####$$$@@  ;@$@++;;+'*",
"%####$$$$$$$@+++)**&%#####%%$@@+$%#$@@$%###$@$$$$@@..;;;;;   +'&",
"##$$#$$$$$@@+++;''*#$####$$$@+@;@##$$$$$$@$@@@$$++;,- ;;;;;  +%#",
"$$@$####$$@+;; .#$$$$$$$$$$@;;+.@$$$$$$$$$@@@+@$@+;=-..--.;;  ;@",
"%@- ;+++++@  ....-=. ;;;;;;; .-, ;; --,-; ;+++@+++++@@@+,$%***'*",
"#$ ;;+@@@$$$++;; .-+@@@@$@$@$@@@@@++ .-;@+@$$$#$@@@$$@@+ %#&%&%&",
"$@;+@@$#$$@@@++;;; +@#%#%*&&%%%#$@@+;.-+$@$###$$@@$#%#$@+&#%#%%%",
"$$;@$##%#$@@@@++++;$$#&%#*&&%&&#$##@+; @$$%%#$$@@$#$$$$$@&&%%###",
"$@;+$%@@$$@++++++; $$%%@$$%%%##$@@$@@+ @$@$$$@@@@@@++@$$+#%$@$$$",
"#@ ;@@@+++++++++; .@@#$@$$$#$$@++@#$@@ @@++;++++;;;;++@@;$@@$$$@",
"#@ +++++++++;;  .--;+##$@+@$@@++@#&#@+ @@@+++++++++++;++ @$$$$@$",
"@;. +++++;;;; ;+ -,.;++@++++++;++@$$@; +@@++++++; ;;;; -,.;;;;++",
" .-. ;; .-$%&**&%#$##%%%&&*%&-. ++;;; ....-,;$#**''**''''))'%,  ",
";;;+;+;  .##&')*%$@$$#%&&%###.++$$$$@;;;; ..#**'')'*&&**&&**#- ;",
"+@@$$$@; .#$$#%&#$+@$$#*&#$$#.@$####$$+++;; $&')**&&&&**&&%##.;+",
"@$@@@$@+ .$@@$@#$@@@@$#&#@@$$ +$##%#%#$@@++;&*''**%&*%%#$$##$;;+",
"++++++++ .+@@++$@@$$$$##$@@@@.@$###%$@@@++;;&'&%%%#&*%$@@$$$$;++",
";;;;;;; . ++++;;+$$$$@@@@@@+@. ;@@@++;+;;;;;&&##$$@$#@++@$$$$ ;+",
";++;   .-. ;+; ;+@@@@@@@+++;+-..  ;;    . ;;%%#$@$@@$@@+@@$$@ ;+",
";+; ...---. ;  ;;; ...   ;;;;--..  .-.... ; %####$@@@@@+++@+@- ;",
"$$$#$+-$#&**%###%%#$+ &******'''*#$@. ++@@@@@$$@+;++++; .-.  ;+$",
"&#%&%$ %&*''*&&%%%#$$;*')**')')*%##$.+@@@@$$$$#$@++@$$@+;-.;;@##",
"%%###$ %&&**&##%%##$$+*))*'))''*%%#$ +@#######%#@++@$#$$+.. @@##",
"$##$#@;%&&&%#$%&##%#$+))'')'**&&&%#$ +$###%#####@++@@#$$+..;@$##",
"#$$$@@ %%&%#$##%##&&$+**')*****&&##$ +@$####$$$$$@@@@$@++.;+@@##",
"$$$@@+ ####$$@$$+$%#@+*&&'&%&&&&%%#$;++@$$++;+;;++@@+@++;.;@$$$$",
"@@@@++.$@@$@@@@@@@@++;&&&&**&&&*&&%# +++;;;;;+;+;+++;@++;-.;+++@",
" ++;..- ;@+++++@+++;; &%%%%%%%%%##$#.;+ ;;;+;;; ;+@+;++; ,. ;; .",
"**'''*''***&,. . ;...-;@$@$$@@++; ..--,=,. . --.--%&%&&&&%####$ ",
"'**''**''&&%.;;;;;;@#%%%%&###$$@@@@@@; -. ;    ; .#$###&&&###$@;",
"&&&)'**'*%&#;+;@@$$$$###%%#$$$##%%#$@@+. ;;+;+++; %#%&%#%&%#%%@+",
"%&*'**&*&##$;+@$@@$#$@$$#$$$#$##%%##$@+ +;++++++++%%&&%%%%%%&#@+",
"&*&'&&##$$$@++@@$$$$$@@#$+@$##@###@$$$+ +++++++@@@&&%%%%%####$@+",
"'***&#$$@$#$+;+++++++@@@@$$$$@$#$@@@+++.;;;;+;;;++*%#####$$#$@++",
"%###$$$$$$##;;++;;;+++++@@@@@@$$@@@+;  -.. ;     .&%%#$$$$$@@+;.",
"$$$#$$@@@@@$. +++;;;;;;++@@@$$@$@@@;;;.=--. .---.=$#$$#@@@@@@+ -"};
