/* XPM */
static char * metal_xpm[] = {
"37 31 212 2",
"  	c #4E4E4E",
". 	c #7C7C7C",
"+ 	c #8F8F8F",
"@ 	c #929292",
"# 	c #888888",
"$ 	c #848484",
"% 	c #717171",
"& 	c #797979",
"* 	c #7D7D7D",
"= 	c #828282",
"- 	c #868686",
"; 	c #7A7A7A",
"> 	c #777777",
", 	c #7E7E7E",
"' 	c #6E6E6E",
") 	c #606060",
"! 	c #6D6D6D",
"~ 	c #666666",
"{ 	c #5F5F5F",
"] 	c #686868",
"^ 	c #737373",
"/ 	c #747474",
"( 	c #6A6A6A",
"_ 	c #6F6F6F",
": 	c #5D5D5D",
"< 	c #2F2F2F",
"[ 	c #595959",
"} 	c #787878",
"| 	c #636363",
"1 	c #5B5B5B",
"2 	c #575757",
"3 	c #616161",
"4 	c #676767",
"5 	c #656565",
"6 	c #626262",
"7 	c #464646",
"8 	c #7F7F7F",
"9 	c #727272",
"0 	c #646464",
"a 	c #454545",
"b 	c #353535",
"c 	c #707070",
"d 	c #585858",
"e 	c #4F4F4F",
"f 	c #5E5E5E",
"g 	c #5C5C5C",
"h 	c #383838",
"i 	c #4D4D4D",
"j 	c #6B6B6B",
"k 	c #696969",
"l 	c #565656",
"m 	c #373737",
"n 	c #4B4B4B",
"o 	c #7B7B7B",
"p 	c #6C6C6C",
"q 	c #444444",
"r 	c #838383",
"s 	c #818181",
"t 	c #767676",
"u 	c #757575",
"v 	c #808080",
"w 	c #484848",
"x 	c #919191",
"y 	c #8A8A8A",
"z 	c #898989",
"A 	c #878787",
"B 	c #858585",
"C 	c #A3A3A3",
"D 	c #959595",
"E 	c #8E8E8E",
"F 	c #8B8B8B",
"G 	c #424242",
"H 	c #8D8D8D",
"I 	c #9C9C9C",
"J 	c #434343",
"K 	c #ABABAB",
"L 	c #9F9F9F",
"M 	c #989898",
"N 	c #404040",
"O 	c #A2A2A2",
"P 	c #969696",
"Q 	c #939393",
"R 	c #A0A0A0",
"S 	c #9A9A9A",
"T 	c #979797",
"U 	c #ADADAD",
"V 	c #909090",
"W 	c #9B9B9B",
"X 	c #A5A5A5",
"Y 	c #B1B1B1",
"Z 	c #A6A6A6",
"` 	c #B0B0B0",
" .	c #9D9D9D",
"..	c #A8A8A8",
"+.	c #B5B5B5",
"@.	c #A7A7A7",
"#.	c #BCBCBC",
"$.	c #BBBBBB",
"%.	c #949494",
"&.	c #999999",
"*.	c #B8B8B8",
"=.	c #AEAEAE",
"-.	c #B3B3B3",
";.	c #B2B2B2",
">.	c #B4B4B4",
",.	c #CCCCCC",
"'.	c #B6B6B6",
").	c #ACACAC",
"!.	c #C4C4C4",
"~.	c #9E9E9E",
"{.	c #BFBFBF",
"].	c #C2C2C2",
"^.	c #C1C1C1",
"/.	c #C0C0C0",
"(.	c #D0D0D0",
"_.	c #C5C5C5",
":.	c #BDBDBD",
"<.	c #A4A4A4",
"[.	c #BABABA",
"}.	c #A1A1A1",
"|.	c #C7C7C7",
"1.	c #BEBEBE",
"2.	c #CFCFCF",
"3.	c #D9D9D9",
"4.	c #AFAFAF",
"5.	c #D1D1D1",
"6.	c #C3C3C3",
"7.	c #CECECE",
"8.	c #C6C6C6",
"9.	c #D8D8D8",
"0.	c #D3D3D3",
"a.	c #C8C8C8",
"b.	c #D2D2D2",
"c.	c #C9C9C9",
"d.	c #D6D6D6",
"e.	c #E1E1E1",
"f.	c #CDCDCD",
"g.	c #E3E3E3",
"h.	c #DFDFDF",
"i.	c #D7D7D7",
"j.	c #CBCBCB",
"k.	c #D5D5D5",
"l.	c #CACACA",
"m.	c #DBDBDB",
"n.	c #DEDEDE",
"o.	c #D4D4D4",
"p.	c #DDDDDD",
"q.	c #E8E8E8",
"r.	c #DCDCDC",
"s.	c #EFEFEF",
"t.	c #DADADA",
"u.	c #EDEDED",
"v.	c #E4E4E4",
"w.	c #515151",
"x.	c #8C8C8C",
"y.	c #A9A9A9",
"z.	c #474747",
"A.	c #333333",
"B.	c #505050",
"C.	c #525252",
"D.	c #545454",
"E.	c #323232",
"F.	c #5A5A5A",
"G.	c #2E2E2E",
"H.	c #494949",
"I.	c #414141",
"J.	c #3E3E3E",
"K.	c #555555",
"L.	c #313131",
"M.	c #3C3C3C",
"N.	c #3D3D3D",
"O.	c #3F3F3F",
"P.	c #303030",
"Q.	c #4A4A4A",
"R.	c #535353",
"S.	c #3B3B3B",
"T.	c #3A3A3A",
"U.	c #363636",
"V.	c #2C2C2C",
"W.	c #1F1F1F",
"X.	c #343434",
"Y.	c #212121",
"Z.	c #282828",
"`.	c #393939",
" +	c #262626",
".+	c #2B2B2B",
"++	c #4C4C4C",
"@+	c #2D2D2D",
"#+	c #1D1D1D",
"$+	c #1E1E1E",
"%+	c #272727",
"&+	c #252525",
"*+	c #292929",
"=+	c #0F0F0F",
"-+	c #2A2A2A",
";+	c #0C0C0C",
">+	c #191919",
",+	c #1C1C1C",
"'+	c #1A1A1A",
")+	c #202020",
"!+	c #0D0D0D",
"~+	c #181818",
"{+	c #232323",
"]+	c #171717",
"^+	c #111111",
"/+	c #101010",
"(+	c #141414",
"_+	c #151515",
":+	c #121212",
"<+	c #222222",
"[+	c #0E0E0E",
"}+	c #161616",
"  . + @ # $ . % & * = - - ; % > , ' ) ! . & ~ { ] ^ > * / / ' ( _ , , : ~ ",
"< [ ^ } ' | 1 2 3 ( ' _ 4 5 6 ~ _ 5 7 [ ; 8 _ 5 ( 9 ! 0 : { 3 { 4 9 9 [ a ",
"b 5 % c 5 d e   d 6 ~ ] ) { f 3 ] g h i } > j 5 k ' ] 1 l d [ 1 4 ' j 1 m ",
"n ^ o } % k | { { | ! p 4 4 ~ k ' 0 7 3 8 ^ p j ! 9 _ 0 3 ) : 5 ^ > _ 0 q ",
"[ & - r s . } / p p & / / 9 / & ; ! n % @ s t ^ u & ; 9 9 j ( c v - , c w ",
") r x y y z - s ; , A * 8 * s - B & a c C D v & , $ B v v } v = z E F , G ",
"d H I x H @ x - 8 B A B + H + E y r J ( K L y - F F # F - - D M @ F y - N ",
"n M O P Q R L A o . 8 A S L T z - r q % U C Q V E # A V # F W X D s = s N ",
"e R X S W Y Y + 8 o 8 # T Z M - z $ n = ` X L T E F V @ B z  ...x o $ r 7 ",
"_ K +.@.@.#.$.R S %.%.@ Q C O &.S Q 6 Q *.=.-.@.%.@ W M F x U ;.M y P %.f ",
"x >.,.'.).$.!.*.` U K I P  .K ;.-.=.o ~.{.+.].^.@.W Y @.+ I #./.K ~.Z @.} ",
"%.>.(.#.` >._.(.:.>.Y X <.X +.].^.[.y }.|.1.2.3.{.4.5.1.L ..6.7./.>.*.-.# ",
"+ =.7.8.|.{.].9.0.{.U ..-.*.a.b.c.$.P }.2.a.d.e.f.6.g.c.U 4.,.h.i.,.j.#.D ",
"$ -.9.3.g.k.l.m.e.f.#.*.8.,.9.n.0.].W 4.m.o.p.q.r.i.s.t.1.{.p.u.v.3.i.].S ",
"^ Y f.0.3.l./.(.i.,.a.].|.c.(.o.l.'.%.[.k.0.9.h.3.0.h.9.,.j.m.e.3.o.(.>.@ ",
"w.# x Q %.D &.R L P %.D V + @ %.x./ ) @ &.T O y.R T M %.%.+ <.L T P @ o g ",
"z.j k k ~ 9 8 o 9 ! ~ 4 ) | k ' ] n h % _ j . v u j ~ | 4 ) / ! ( ' p : A.",
"B.1 2 d C.: ( | D.C.w.w.  C.: ] 6 z.E.5 6 F.4 k 6 : D.w.d l : { 0 ] 0 F.G.",
"z.w J a J z.i H.I.J.I.G J z.w.1 K.J.L.w.n z.B.w.i H.q M.a   K.d g g F.B.G.",
"m J N.J.N I.I.O.N.M.O.O.N 7   K.C.M.P.Q.I.I.H.Q.a G N.b M.w R.K.K.2 2 n G.",
"G.N S.N.O.M.T.S.M.M.N.J.O.G H.C.  m G.7 S.J.z.w I.T.b b U.q w.w.i w.K.z.V.",
"W.S.E.S.S.m X.X.M.S.m m N M.J.H.J Y.Z.O.X.O.q q O.m A.A.P.I.n H.w H.w `. +",
"L.O.T.N.O.O.M.`.N M.M.S.J.I.H.R.n P.V.G U.N.z.w G N.`.P.T.n C.C.C.D.R.z..+",
"X.a J.O.N G q J M.M.G I.I.w B.d 2 J E.B.w J ++++z.q J.T.N.a K.2 l [ [ ++P.",
"A.N S.N.O.N N.T.N M.N.M.J.I.n D.++A.@+J m N.w H.J J.T.P.M.++R.R.D.K.K.H.V.",
"X.a J.O.N G q J M.M.G I.I.w B.d 2 J E.B.w J ++++z.q J.T.N.a K.2 l [ [ ++P.",
".+O.S.J.N T.U.`.N.M.M.J.O.I.z.B.++A.@+J m N.z.w N b L.X.X.J w.e Q.e K.7 V.",
"#+T.L.M.T.m X.X.N.M.U.U.N S.M.w G $+%+J.A.O.q q O.m X.A.P.I.Q.w z.H.a m &+",
"#+@+U.J.T.E..+*+@+@+@+@+< X.T.n w.*+=+P.E.J.N N.T.h X.*+-+`.J.N J.J.O.X.;+",
">+V.A.X.< &+,+'+$+#+Y.W.Y.*+A.q z.)+=+V.%+-+@+< < < P.*+*+G.G.G.< X.m P.!+",
"~+ +{+)+#+]+^+/+(+(+_+^+:+>+<+G.@+=+[+)+]+}+,+)+)+<+ +Y.#+'+>+]+'+<+%+<+!+"};
