/* XPM */
static char * sheika_xpm[] = {
"64 64 187 2",
"  	c #E8E8E8",
". 	c #E4E4E4",
"+ 	c #E2E2E2",
"@ 	c #E1E1E1",
"# 	c #DBDBDB",
"$ 	c #DCDCDC",
"% 	c #EAEAEA",
"& 	c #E5E5E5",
"* 	c #E9E9E9",
"= 	c #D2D2D2",
"- 	c #DDDDDD",
"; 	c #D4D4D4",
"> 	c #C9C9C9",
", 	c #CDCDCD",
"' 	c #D1D1D1",
") 	c #DEDEDE",
"! 	c #D9D9D9",
"~ 	c #D0D0D0",
"{ 	c #CECECE",
"] 	c #CACACA",
"^ 	c #C7C7C7",
"/ 	c #C1C1C1",
"( 	c #C5C5C5",
"_ 	c #E3E3E3",
": 	c #DFDFDF",
"< 	c #D6D6D6",
"[ 	c #D7D7D7",
"} 	c #DADADA",
"| 	c #E6E6E6",
"1 	c #D3D3D3",
"2 	c #ECECEC",
"3 	c #D8D8D8",
"4 	c #CCCCCC",
"5 	c #CFCFCF",
"6 	c #D5D5D5",
"7 	c #C6C6C6",
"8 	c #C3C3C3",
"9 	c #C4C4C4",
"0 	c #BEBEBE",
"a 	c #B8B8B8",
"b 	c #B7B7B7",
"c 	c #B3B3B3",
"d 	c #BABABA",
"e 	c #BDBDBD",
"f 	c #CBCBCB",
"g 	c #C8C8C8",
"h 	c #BCBCBC",
"i 	c #B1B1B1",
"j 	c #BFBFBF",
"k 	c #ADADAD",
"l 	c #A6A6A6",
"m 	c #A9A9A9",
"n 	c #AEAEAE",
"o 	c #ACACAC",
"p 	c #AAAAAA",
"q 	c #A2A2A2",
"r 	c #A7A7A7",
"s 	c #A5A5A5",
"t 	c #696969",
"u 	c #C2C2C2",
"v 	c #AFAFAF",
"w 	c #9E9E9E",
"x 	c #A0A0A0",
"y 	c #9B9B9B",
"z 	c #999999",
"A 	c #9F9F9F",
"B 	c #BBBBBB",
"C 	c #B5B5B5",
"D 	c #ABABAB",
"E 	c #A8A8A8",
"F 	c #B2B2B2",
"G 	c #868686",
"H 	c #575757",
"I 	c #B4B4B4",
"J 	c #A3A3A3",
"K 	c #979797",
"L 	c #9C9C9C",
"M 	c #C0C0C0",
"N 	c #989898",
"O 	c #898989",
"P 	c #9D9D9D",
"Q 	c #949494",
"R 	c #9A9A9A",
"S 	c #959595",
"T 	c #A1A1A1",
"U 	c #B6B6B6",
"V 	c #757575",
"W 	c #515151",
"X 	c #8D8D8D",
"Y 	c #EFEFEF",
"Z 	c #929292",
"` 	c #969696",
" .	c #7E7E7E",
"..	c #5C5C5C",
"+.	c #8F8F8F",
"@.	c #909090",
"#.	c #4D4D4D",
"$.	c #727272",
"%.	c #B0B0B0",
"&.	c #939393",
"*.	c #8E8E8E",
"=.	c #8C8C8C",
"-.	c #545454",
";.	c #717171",
">.	c #A4A4A4",
",.	c #8B8B8B",
"'.	c #5F5F5F",
").	c #494949",
"!.	c #7A7A7A",
"~.	c #B9B9B9",
"{.	c #888888",
"].	c #404040",
"^.	c #5E5E5E",
"/.	c #686868",
"(.	c #828282",
"_.	c #646464",
":.	c #818181",
"<.	c #858585",
"[.	c #878787",
"}.	c #626262",
"|.	c #838383",
"1.	c #7B7B7B",
"2.	c #5B5B5B",
"3.	c #4F4F4F",
"4.	c #555555",
"5.	c #787878",
"6.	c #7D7D7D",
"7.	c #7F7F7F",
"8.	c #6E6E6E",
"9.	c #4C4C4C",
"0.	c #3E3E3E",
"a.	c #474747",
"b.	c #919191",
"c.	c #848484",
"d.	c #373737",
"e.	c #595959",
"f.	c #4A4A4A",
"g.	c #797979",
"h.	c #424242",
"i.	c #606060",
"j.	c #8A8A8A",
"k.	c #767676",
"l.	c #808080",
"m.	c #3C3C3C",
"n.	c #3A3A3A",
"o.	c #3F3F3F",
"p.	c #777777",
"q.	c #434343",
"r.	c #454545",
"s.	c #6C6C6C",
"t.	c #6A6A6A",
"u.	c #676767",
"v.	c #7C7C7C",
"w.	c #484848",
"x.	c #464646",
"y.	c #585858",
"z.	c #6D6D6D",
"A.	c #444444",
"B.	c #4B4B4B",
"C.	c #6B6B6B",
"D.	c #3D3D3D",
"E.	c #636363",
"F.	c #666666",
"G.	c #616161",
"H.	c #707070",
"I.	c #656565",
"J.	c #292929",
"K.	c #383838",
"L.	c #737373",
"M.	c #565656",
"N.	c #282828",
"O.	c #393939",
"P.	c #525252",
"Q.	c #5D5D5D",
"R.	c #747474",
"S.	c #5A5A5A",
"T.	c #505050",
"U.	c #4E4E4E",
"V.	c #3B3B3B",
"W.	c #353535",
"X.	c #343434",
"Y.	c #363636",
"Z.	c #535353",
"`.	c #6F6F6F",
" +	c #323232",
".+	c #414141",
"++	c #313131",
"    . + @ . . # $ % &   * = - ; > , ' ) @ ) ! ~ { ] ^ / / ( > ^ ^ > ( / / ^ ] { ~ ! ) @ ) ' , > ; - = *   & % $ # . . @ + .     ",
". _ @ : ) : $ ' < [ } : | | + $ 1 < ! @ &     2 * @ 3 ; ^ 4 5 ; ; 5 4 ^ ; 3 @ * 2     & @ ! < 1 $ + | | : } [ < ' $ : ) : @ _ . ",
"[ # $ 3 6 [ < ( ] [ { ~ { # 3 , 7 8 7 5 ; [ # : + : ) : ) & @ ) ) @ & ) : ) : + : # [ ; 5 7 8 7 , 3 # { ~ { [ ] ( < [ 6 3 $ # [ ",
"< [ < ; 5 , 3 < 9 / 7 > 4 , ( 0 a b a b c d b e 0 9 ( 7 > = f 7 7 f = > 7 ( 9 0 e b d c b a b a 0 ( , 4 > 7 / 9 < 3 , 5 ; < [ < ",
"[ ; 6 { ] 7 g , ( 1 h i j j k l l m n h o p q r s p n i j a m t t m a j i n p s r q p o h n m l l k j j i h 1 ( , g 7 ] { 6 ; [ ",
"~ g ] ] > / h u ^ ; 0 k e 7 v w x y z A B { C s l D E D b F G H H G F b D E D l s C { B A z y x w v 7 e k 0 ; ^ u h / > ] ] g ~ ",
"= > ( 9 ^ 9 C 0 b ^ h I ] 1 ] J y w A K L w n h j M F k D N t O O t N D k F M j h n w L K A w y J ] 1 ] I h ^ b 0 C 9 ^ 9 ( > = ",
"g g 8 / M c c A F J l C 7 1 : > y P y Q R x S w T v d U P V W X X W V P U d v T w S x R Q y P y > : 1 7 C l J F A c c M / 8 g g ",
"0 M M M / F ! j B q d b 7 ; [ Y 9 Z Q Z Z L ` R z Q x L  ...S +.+.S .. .L x Q z R ` L Z Z Q Z 9 Y [ ; 7 b d q B j ! F / M M M 0 ",
"a B h d c I C a c n p A o j { 6 < a ` @.@.S S Q Z Z K +.t #.$.O O $.#.t +.K Z Z Q S S @.@.` a < 6 { j o A p n c a C I c d h B a ",
"U a a c v %.o U v C J Q ` T b ( ] ' ^ r @.Q &.&.*.+.@.=.-.V ;.>.>.;.V -.=.@.+.*.&.&.Q @.r ^ ' ] ( b T ` Q J C v U o %.v c a a U ",
"a b U F p c i / 8 ( N +.Z w w s c M g g b v r R ,.G *.'.).;.!.R R !.;.).'.*.G ,.R r v b g g M c s w w Z +.N ( 8 / i c p F U b a ",
"h ~.U n T z m B $ C @.,.w ` +.{.O Q A D M , 1 3 4 k J ].^./.T (.(.T /.^.].J k 4 3 1 , M D A Q O {.+.` w ,.@.C $ B m z T n U ~.h ",
"u d v T $._. .v 2 !.R =.Q ,.O :.<.,.[.[.Q s d ) # + n }.|.1.T ;.;.T 1.|.}.n + # ) d s Q [.[.,.<.:.O ,.Q =.R !.2 v  ._.$.T v d u ",
"8 I s @.2.^.3.4.V X r 5 5.6.X :.|.{.O {.<.|.7.O O L '.8.>.+ @.x x @.+ >.8.'.L O O 7.|.<.{.O {.|.:.X 6.5.5 r X V 4.3.^.2.@.s I 8 ",
"b n A N ,. .!.9.0.a.3...n c b.c.(.,.,.G c.c. .(.7./.d.e.:.` f.4.4.f.` :.e.d./.7.(. .c.c.G ,.,.(.c.b.c n ..3.a.0.9.!. .,.N A n b ",
"c k J w S !.` 7.g.9.h.a.i.V D j.k.(.G :.c.l.l.<.<.f.m.4.1.].n.o.o.n.].1.4.m.f.<.<.l.l.c.:.G (.k.j.D V i.a.h.9.g.7.` !.S w J k c ",
"U n m m Z V p.<.&.[.|.q.r.a.s.R J x <.(.|.6. .:.|.t.$.L = u.g.c.c.g.u.= L $.t.|.:. .6.|.(.<.x J R s.a.r.q.|.[.&.<.p.V Z m m n U ",
"%.n o T E x ;.'.8.+.O v.1.w.x.a.x.1.S c.l. .7.c.,.` b.# 5 v.<.G G <.v.5 # b.` ,.c.7. .l.c.S 1.x.a.x.w.1.v.O +.8.'.;.x E T o n %.",
"l p C S b.R j.w.y.z.V j.[.7. .A.a.B.).|.l.7.(.,.G k.C.i.m.D.].h.h.].D.m.i.C.k.G ,.(.7.l.|.).B.a.A. .7.[.j.V z.y.w.j.R b.S C p l ",
"s o a %.p U 8 h.2.p.E.F.G.<.{.t i.w.E.|. .7.c.c.H.m.h.f.D.0.0.D.D.0.0.D.f.h.m.H.c.c.7. .|.E.w.i.t {.<.G.F.E.p.2.h.8 U p %.a o s ",
"m k b o w l h 8.z.|._.t.I.i.0.^.t.&.Z +.(.G #.J.K.r.D.^.}././.F.F././.}.^.D.r.K.J.#.G (.+.Z &.t.^.0.i.I.t._.|.z.8.h l w o b k m ",
"J l E x Q P e (.D.L.{.8.-.A.q.(.l. .g.(.M.N.N.O.M./.u.;.}.:.j.=.=.j.:.}.;.u./.M.O.N.N.M.(.g. .l.(.q.A.-.8.{.L.D.(.e P Q x E l J ",
"A x x T n &.R m q.s.g.9.i.f. .k.6.E.F.K.d.m.4.,.<.'.}.l.<.<.c.6.6.c.<.<.l.}.'.<.,.4.m.d.K.F.E.6.k. .f.i.9.g.s.q.m R &.n T x x A ",
"L L q p r x T w '.#.#.'.t.y p.i.F.P.d.m.y.+.T j.F.Q.;.1.R.8...2.2...8.R.1.;.Q.F.j.T +.y.m.d.P.F.i.p.y t.'.#.#.'.w T x r p q L L ",
"y R L L >.` x x *.S.I.l f ] G u.#.O.q.y.1.q !.T.U.L.;.Q.e.Q.^.W W ^.Q.e.Q.;.L.U.T.!.q 1.y.q.O.#.u.G ] f l I.S.*.x x ` >.L L R y ",
"J A w S v n P Q [.g.L K A =.X $.).a.$.1.y !.3.n.t.k.2.y.S.U.f.V.V.f.U.S.y.2.k.t.n.3.!.y 1.$.a.).$.X =.A K L g.[.Q P n v S w A J ",
"q q E s P h L g.v.=.1.e.'.R.e.W R.d 7.*.Z H f.).$._...Q.Q.V.n.f.f.n.V.Q.Q..._.$.).f.H Z *.7.d R.W e.R.'.e.1.=.v.g.L h P s E q q ",
"x x >.r &.v &.V t i.#.S.#.h.K.y.E ) P m O S.H e.i._.e.S.'.h.9.'.'.9.h.'.S.e._.i.e.H S.O m P ) E y.K.h.#.S.#.i.t V &.v &.r >.x x ",
"x A q c S D =.}.m.n.n.h.W.X.r.F.g.b R q l G.Q.^.2.S...Q.Q.4.G.G.G.G.4.Q.Q...S.2.^.Q.G.l q R b g.F.r.X.W.h.n.n.m.}.=.D S c q A x ",
"w y w >.S R &.P.m.#.P.Y.W.T.;.7.F.K P L c.P.y.S.}.G.G.H W k.S.'.'.S.k.W H G.G.}.S.y.P.c.L P K F.7.;.T.W.Y.P.#.m.P.&.R S >.w y w ",
"K N y R &.X Q l...S.'.W y.k.1.I.R.(.k.H.t._.C.;.w.4.F.^.#.&.$.5.5.$.&.#.^.F.4.w.;.C._.t.H.k.(.R.I.1.k.y.W '.S...l.Q X &.R y N K ",
"Q ` R N =.1.g.!.V <.;.G.^.8.2.L.<.(.^.#.2.^. .7.W.Y.e._.e.B.` :.:.` B.e._.e.Y.W.7. .^.2.#.^.(.<.L.2.8.^.G.;.<.V !.g.1.=.N R ` Q ",
"*.@.Q L >.L R >.p l S *.F.x.#.T.M N G f.).).Q.b.I.X.V.Q.}.^.2.4.4.2.^.}.Q.V.X.I.b.Q.).).f.G N M T.#.x.F.*.S l p >.R L >.L Q @.*.",
"[.,.X &.c ^ o l R w S ,.:.F.#.f.Z.L.L.6.7.*.y.L 9 Z.O.D.F.8.`.G.G.`.8.F.D.O.Z.9 L y.*.7.6.L.L.Z.f.#.F.:.,.S w R l o ^ c &.X ,.[.",
"G [.,.` l u E |.5.(.Z 6.k.+.D E.3.f.x.<./.t.(.O.+.h G.n.o.0.n.).).n.0.o.n.G.h +.O.(.t./.<.x.f.3.E.D +.k.6.Z (.5.|.E u l ` ,.[.G ",
"6.(.[.@.A d G  +8.1.!.[.S F ] 7 m G.q..+).E.i.V ..:.N _.].Y.d.O.O.d.Y.]._.N :...V i.E.)..+q.G.m 7 ] F S [.!.1.8. +G d A @.[.(.6.",
"g.6.:.(.,.P i 8.U.C.R.,.x c d b j v 7.y.#.r.q.I.u.z.b.7.|.A J R.R.J A |.7.b.z.u.I.q.r.#.y.7.v j b d c x ,.R.C.U.8.i P ,.(.:.6.g.",
"6.7.(.:.(.z D r ;._.R.[.N w {.,.*.b.N D X t 2.f.w.a.2. .Z g.L.g.g.L.g.Z  .2.a.w.f.2.t X D N b.*.,.{.w N [.R._.;.r D z (.:.(.7.6.",
"l.<.,.=.@.s m N J !.x.i.` Q z y l P o w Z m (.t.}.T.A.a.w.a.x.r.r.x.a.w.a.A.T.}.t.(.m Z w o P l y z Q ` i.x.!.J N m s @.=.,.<.l.",
"@.*.+.` J m P (.p.[.L.f.0.].*.*.m c.g.t.C.8.R.j.*./.T.9.a.A.r.9.9.r.A.a.9.T./.*.j.R.8.C.t.g.c.m *.*.].0.f.L.[.p.(.P m J ` +.*.@.",
"Z +.*.&.>.r ` p.F./.|.6.P.d.++W.i.z.|.c.!.H.`.p.c.=.l.!.8./.H M.M.H /.8.!.l.=.c.p.`.H.!.c.|.z.i.W.++d.P.6.|./.F.p.` r >.&.*.+.Z ",
"X X j.[.&.K =.L.z.;.7.*.$.#.f.0.O.Y...Q.1.:. .6.$.=.7.O c.;...H H ..;.c.O 7.=.$.6. .:.1.Q...Y.O.0.f.#.$.*.7.;.z.L.=.K &.[.j.X X ",
"+.=.j.!.F.c.|.L.;.$.1.l. .I.'.9.w.w.O.O..+S.-.W 7.K 1.|.E.f.S.t t S.f.E.|.1.K 7.W -.S..+O.O.w.w.9.'.I. .l.1.$.;.L.|.c.F.!.j.=.+.",
"*.,.[.|.V c.|.k.L.H.!.+.&.'.$.|./.Q.W ).O.O.d.m.9.U.w.r.W.9.4.!.!.4.9.W.r.w.U.9.m.d.O.O.).W Q./.|.$.'.&.+.!.H.L.k.|.c.V |.[.,.*.",
"[.*.|.G =.Z [.R.$.t.H.[.o ;.E.7.k.W ^...W S.S.r.O.O.d.K.n.y./.;.;./.y.n.K.d.O.O.r.S.S.W ..^.W k.7.E.;.o [.H.t.$.R.[.Z =.G |.*.[.",
"{.+.:.c.Z Q [.5.H.H.$.|.J l.n.T.g.;.s.4.Q.;.H.Q.e.4.4.4.S.^.p.E.E.p.^.S.4.4.4.e.Q.H.;.Q.4.s.;.g.T.n.l.J |.$.H.H.5.[.Q Z c.:.+.{.",
"[.+.v.:.+.N O 1.:.:.$.G q G ;.A.H p.k.g.1.4.y.e.i.^.Q...2.S.g.Q.Q.g.S.2...Q.^.i.e.y.4.1.g.k.p.H A.;.G q G $.:.:.1.O N +.:.v.+.[.",
"|.7.$.1.=.` c.p.k.7.L.R M s v.m.h.}.I.6.6.$.6.8...S.S...i.'.i.S.S.i.'.i...S.S...8.6.$.6.6.I.}.h.m.v.s M R L.7.k.p.c.` =.1.$.7.|.",
"5.L.!.$.[.b.1.;.C.L.v.U 7 v g.V D.o.}.'.u.(.g. .6.R.i.e..._.P.2.2.P._...e.i.R.6. .g.(.u.'.}.o.D.V g.v 7 U v.L.C.;.1.b.[.$.!.L.5.",
"R.k.1.R.5.g.8.`.8.:.&.u b l p.g.v.0.q.i.'.e.z. .$.L.p.5.^.Q.n.}.}.n.Q.^.5.p.L.$. .z.e.'.i.q.0.v.g.p.l b u &.:.8.`.8.g.5.R.1.k.R.",
"$.`.$.H.`.8./.s.$.k.v.7.D S 8.L.5.s.h.h.2.i.Q.-.M.z.p.$.g.F.o.h.h.o.F.g.$.p.z.M.-.Q.i.2.h.h.s.5.L.8.S D 7.v.k.$.s./.8.`.H.$.`.$.",
"C.`.s.C.8.g.6.V ;.8.i.z.h Q }.8.v.<.}.q.A.t './.Q.M.e.4.8.!.8.r.r.8.!.8.4.e.M.Q./.'.t A.q.}.<.v.8.}.Q h z.i.8.;.V 6.g.8.C.s.`.C.",
"$.V 8.z.g.G 8.1.;.s.F.[.j >.`.H.R.R.!.Q.o.x.S.I.t.Q.i.Q.S.s.:.{.{.:.s.S.Q.i.Q.t.I.S.x.o.Q.!.R.R.H.`.>.j [.F.s.;.1.8.G g.z.8.V $.",
"!.p.H.t.g.S R.R.`.`.!.b.P <.<.g.$.R.p.;.^.o.m.w.S.p.H...i.H ;.P P ;.H i...H.p.S.w.m.o.^.;.p.R.$.g.<.<.P b.!.`.`.R.R.S g.t.H.p.!.",
"L.V 8.u.z.R <.8.u.V j.b.z k.<.l.p.p.!.1.v....+V.O.x.S.-.C.;.}.|.|.}.;.C.-.S.x.O.V..+..v.1.!.p.p.l.<.k.z b.j.V u.8.<.R z.u.8.V L.",
";.H.8./.t.*.g.k.s.O c.k.T l.&.G v.1.6. .1.H.S.U.x.Y.Y.W.a.T.Z.-.-.Z.T.a.W.Y.Y.x.U.S.H.1. .6.1.v.G &.l.T k.c.O s.k.g.*.t./.8.H.;.",
";.8.s.F./.L.t.!.:.j.j.1.z P p 7.v.6.6. .1.R.z.E.H w.Z..+n.K.0.0.0.0.K.n..+Z.w.H E.z.R.1. .6.6.v.7.p P z 1.j.j.:.!.t.L./.F.s.8.;.",
"`.z./.I./.t C.;.7.c.O {.+.O =.`.7.6.1.l.c.!.1.!.L.E.2.2.W Z.P.H H P.Z.W 2.2.E.L.!.1.!.c.l.1.6.7.`.=.O +.{.O c.7.;.C.t /.I./.z.`.",
"H.s.t u.C.`.$.6.l.:.G X Z Q X {.&.z.l.!.l. .6.6.7.5.$.t.G.'.E.F.F.E.'.G.t.$.5.7.6.6. .l.!.l.z.&.{.X Q Z X G :.l.6.$.`.C.u.t s.H.",
"8.C./.t `.p.v.l.(.c.{.*.Q X  . .5.V !.v. .:.|.|.|.:. .!.R.p.7. . .7.p.R.!. .:.|.|.|.:. .v.!.V 5. . .X Q *.{.c.(.l.v.p.`.t /.C.8.",
"t.I.F./.;.!.l.c.|.<.j.b.&.+.(.6.!.1.1. .l.|.|.c.<.[.j.j.[.{.O {.{.O {.[.j.j.[.<.c.|.|.l. .1.1.!.6.(.+.&.b.j.<.|.c.l.!.;./.F.I.t.",
"y.I.I._.s.g.|.c.c.<.,.Z R &.c. . . .l.(.<.{.j.{.O {.*.&.b.Z b.=.=.b.Z b.&.*.{.O {.j.{.<.(.l. . . .c.&.R Z ,.<.c.c.|.g.s._.I.I.y.",
"}.C.G.}.z.L. .G 1.<.,.Z K *.j.=.j.l.<.=.*.j.O O {.<.=.b.b.Z K j.j.K Z b.b.=.<.{.O O j.*.=.<.l.j.=.j.*.K Z ,.<.1.G  .L.z.}.G.C.}."};
